<svg width="12" height="12" viewBox="0 0 12 12" fill="none" xmlns="http://www.w3.org/2000/svg">
<path d="M11.4834 6.00028H11.1179V4.17245C11.1179 3.97066 10.9541 3.80688 10.7523 3.80688H10.3867V2.71019C10.3867 2.50839 10.223 2.34462 10.0212 2.34462H8.78482L8.15458 1.08415C8.06392 0.902827 7.84458 0.830445 7.66399 0.920374L6.82173 1.34224L6.69232 1.08415C6.60166 0.903558 6.38232 0.830445 6.20173 0.921105L3.3547 2.34462H1.24758C0.642931 2.34462 0.150879 2.83667 0.150879 3.44132V10.0215C0.150879 10.6262 0.642931 11.1182 1.24758 11.1182H10.7523C10.9541 11.1182 11.1179 10.9544 11.1179 10.7526V8.92481H11.4834C11.6852 8.92481 11.849 8.76103 11.849 8.55924V6.36585C11.849 6.16405 11.6852 6.00028 11.4834 6.00028ZM9.6556 3.07575V3.80688H9.51595L9.15038 3.07575H9.6556ZM7.66399 1.73851L8.69854 3.80688H8.05369L7.14854 1.99587L7.66399 1.73851ZM6.20173 1.73851L7.23628 3.80688H2.06498L6.20173 1.73851ZM1.24758 3.07575H1.89244L0.911256 3.56634C0.896634 3.52613 0.882011 3.48519 0.882011 3.44132C0.882011 3.23952 1.04578 3.07575 1.24758 3.07575ZM10.3867 10.3871H1.24758C1.04578 10.3871 0.882011 10.2233 0.882011 10.0215V4.46783C1.00192 4.51096 1.12475 4.53802 1.24758 4.53802H10.3867V6.00028H8.92446C8.11803 6.00028 7.4622 6.65611 7.4622 7.46254C7.4622 8.26898 8.11803 8.92481 8.92446 8.92481H10.3867V10.3871ZM11.1179 8.19368H8.92446C8.52161 8.19368 8.19333 7.8654 8.19333 7.46254C8.19333 7.05969 8.52161 6.73141 8.92446 6.73141H11.1179V8.19368Z" fill="#FFB946"/>
</svg>
