<svg width="53" height="53" viewBox="0 0 53 53" fill="none" xmlns="http://www.w3.org/2000/svg">
<rect width="53" height="53" rx="11" fill="#109CF1" fill-opacity="0.2"/>
<g clip-path="url(#clip0)">
<path d="M36.9062 21.875H35.75V17.25C35.75 12.1486 31.6014 7.99999 26.5 7.99999C21.3986 7.99999 17.25 12.1486 17.25 17.25V21.875H16.0938C14.1821 21.875 12.625 23.4305 12.625 25.3437V41.5312C12.625 43.4445 14.1821 45 16.0938 45H36.9062C38.8179 45 40.375 43.4445 40.375 41.5312V25.3437C40.375 23.4305 38.8179 21.875 36.9062 21.875ZM20.3333 17.25C20.3333 13.8491 23.0991 11.0833 26.5 11.0833C29.9009 11.0833 32.6667 13.8491 32.6667 17.25V21.875H20.3333V17.25ZM28.0417 33.7797V37.2917C28.0417 38.1427 27.3525 38.8333 26.5 38.8333C25.6475 38.8333 24.9583 38.1427 24.9583 37.2917V33.7797C24.041 33.2448 23.4167 32.2612 23.4167 31.125C23.4167 29.4245 24.7995 28.0417 26.5 28.0417C28.2005 28.0417 29.5833 29.4245 29.5833 31.125C29.5833 32.2612 28.959 33.2448 28.0417 33.7797Z" fill="#109CF1"/>
</g>
<defs>
<clipPath id="clip0">
<rect width="37" height="37" fill="white" transform="translate(8 8)"/>
</clipPath>
</defs>
</svg>
