<svg width="31" height="31" viewBox="0 0 31 31" fill="none" xmlns="http://www.w3.org/2000/svg">
<path d="M26.2915 30.9168H4.70813C3.4815 30.9168 2.30512 30.4295 1.43776 29.5621C0.570405 28.6948 0.0831299 27.5184 0.0831299 26.2918V1.62509C0.0831299 1.21621 0.245555 0.824082 0.534674 0.534963C0.823792 0.245845 1.21592 0.0834198 1.6248 0.0834198H23.2081C23.617 0.0834198 24.0091 0.245845 24.2983 0.534963C24.5874 0.824082 24.7498 1.21621 24.7498 1.62509V20.1251H30.9165V26.2918C30.9165 27.5184 30.4292 28.6948 29.5618 29.5621C28.6945 30.4295 27.5181 30.9168 26.2915 30.9168ZM24.7498 23.2084V26.2918C24.7498 26.7006 24.9122 27.0928 25.2013 27.3819C25.4905 27.671 25.8826 27.8334 26.2915 27.8334C26.7003 27.8334 27.0925 27.671 27.3816 27.3819C27.6707 27.0928 27.8331 26.7006 27.8331 26.2918V23.2084H24.7498ZM21.6665 27.8334V3.16675H3.16646V26.2918C3.16646 26.7006 3.32889 27.0928 3.61801 27.3819C3.90713 27.671 4.29925 27.8334 4.70813 27.8334H21.6665ZM6.2498 7.79175H18.5831V10.8751H6.2498V7.79175ZM6.2498 13.9584H18.5831V17.0418H6.2498V13.9584ZM6.2498 20.1251H13.9581V23.2084H6.2498V20.1251Z" fill="#34AC6D"/>
</svg>
